<svg width="34" height="42" viewBox="0 0 34 42" fill="none" xmlns="http://www.w3.org/2000/svg">
<path d="M16.8 25.2C21.4326 25.2 25.2 21.4326 25.2 16.8C25.2 12.1673 21.4326 8.3999 16.8 8.3999C12.1673 8.3999 8.3999 12.1673 8.3999 16.8C8.3999 21.4326 12.1673 25.2 16.8 25.2ZM16.8 12.5999C19.1163 12.5999 21 14.4837 21 16.8C21 19.1163 19.1163 21 16.8 21C14.4837 21 12.5999 19.1163 12.5999 16.8C12.5999 14.4837 14.4837 12.5999 16.8 12.5999Z" fill="#FFFFFF"/>
<path d="M15.5823 41.6097C15.9377 41.8636 16.3636 42 16.8003 42C17.2371 42 17.6629 41.8636 18.0183 41.6097C18.6567 41.1582 33.6614 30.3242 33.6005 16.8001C33.6005 7.53696 26.0635 0 16.8003 0C7.53715 0 0.000184881 7.53696 0.000184881 16.7896C-0.0607156 30.3242 14.9439 41.1582 15.5823 41.6097ZM16.8003 4.20003C23.7493 4.20003 29.4004 9.85118 29.4004 16.8106C29.4445 26.1305 20.1855 34.4991 16.8003 37.2438C13.4172 34.497 4.15612 26.1263 4.20022 16.8001C4.20022 9.85118 9.85136 4.20003 16.8003 4.20003Z" fill="#FFFFFF"/>
</svg>
