<svg width="40" height="40" viewBox="0 0 40 40" fill="none" xmlns="http://www.w3.org/2000/svg">
<path d="M20 26C21.62 26 23 25.4 24.22 24.22C25.4 23 26 21.62 26 20C26 18.38 25.4 17 24.22 15.78C23 14.6 21.62 14 20 14C18.38 14 17 14.6 15.78 15.78C14.6 17 14 18.38 14 20C14 21.62 14.6 23 15.78 24.22C17 25.4 18.38 26 20 26ZM20 0C25.5 0 30.2 2 34.1 5.9C38 9.8 40 14.5 40 20V22.9C40 24.9 39.3 26.6 38 28C36.6 29.34 35 30 33 30C30.6 30 28.62 29 27.12 27C25.12 29 22.76 30 20 30C17.26 30 14.9 29 12.92 27.08C11 25.1 10 22.76 10 20C10 17.26 11 14.9 12.92 12.92C14.9 11 17.26 10 20 10C22.76 10 25.1 11 27.08 12.92C29 14.9 30 17.26 30 20V22.9C30 23.72 30.32 24.44 30.92 25.06C31.52 25.68 32.22 26 33 26C33.84 26 34.54 25.68 35.14 25.06C35.74 24.44 36 23.72 36 22.9V20C36 15.62 34.46 11.86 31.3 8.7C28.14 5.54 24.38 4 20 4C15.62 4 11.86 5.54 8.7 8.7C5.54 11.86 4 15.62 4 20C4 24.38 5.54 28.14 8.7 31.3C11.86 34.46 15.62 36 20 36H30V40H20C14.5 40 9.8 38 5.9 34.1C2 30.2 0 25.5 0 20C0 14.5 2 9.8 5.9 5.9C9.8 2 14.5 0 20 0Z" fill="white"/>
</svg>
