<svg width="47" height="47" viewBox="0 0 47 47" fill="none" xmlns="http://www.w3.org/2000/svg">
<path d="M20.8213 11.8354L13.7734 3.70001C12.9609 2.76251 11.4713 2.76668 10.5276 3.71251L4.73173 9.51876C3.00673 11.2458 2.51298 13.8104 3.5109 15.8667C9.47261 28.2104 19.4277 38.1794 31.763 44.1583C33.8171 45.1563 36.3797 44.6625 38.1047 42.9354L43.9547 37.075C44.9026 36.1271 44.9046 34.6292 43.9588 33.8167L35.7921 26.8063C34.938 26.0729 33.6109 26.1688 32.7546 27.0271L29.913 29.8729C29.7675 30.0254 29.576 30.1259 29.3679 30.159C29.1598 30.1921 28.9465 30.156 28.7609 30.0563C24.116 27.3815 20.263 23.5234 17.5942 18.875C17.4943 18.6891 17.4581 18.4755 17.4912 18.267C17.5243 18.0585 17.6249 17.8667 17.7776 17.7208L20.6109 14.8854C21.4692 14.0229 21.563 12.6896 20.8213 11.8333V11.8354Z" stroke="#FFFFFF" stroke-width="4.16667" stroke-linecap="round" stroke-linejoin="round"/>
</svg>
